<svg xmlns="http://www.w3.org/2000/svg" viewBox="0 0 500 500"><g id="freepik--background-simple--inject-2"><path d="M104.56,101.62c27.91-59.44,127.05-51.06,165.31-9.25s50.7,68.6,85.21,53,78.52-11.44,81,38.17S398.21,291.78,334,309.13s-64.16,78.76-149.1,66.37c-46.31-6.76-47.36-56.86-40.82-98.3S72.18,170.57,104.56,101.62Z" style="fill:#407BFF"></path><path d="M104.56,101.62c27.91-59.44,127.05-51.06,165.31-9.25s50.7,68.6,85.21,53,78.52-11.44,81,38.17S398.21,291.78,334,309.13s-64.16,78.76-149.1,66.37c-46.31-6.76-47.36-56.86-40.82-98.3S72.18,170.57,104.56,101.62Z" style="fill:#fff;opacity:0.9"></path></g><g id="freepik--Shadow--inject-2"><ellipse id="freepik--path--inject-2" cx="250" cy="431.82" rx="204.67" ry="11.95" style="fill:#f5f5f5"></ellipse></g><g id="freepik--plant-2--inject-2"><path d="M422.06,406.11s-5.25-11.45.75-22.74,7.73-13.94,3.91-16.26-5.58,9-5.58,9-3.22-7.8-.56-16,4.33-21.47.7-22.89-.7,16.59-3.85,22.73a52.59,52.59,0,0,1-3.08-13.39c-.44-6.56.24-17-2.63-19.72s-4.7-.83-1.88,13.64a150.9,150.9,0,0,1,2.79,26.25s-6.22-19-10.4-19.55-4.18,5.6-.6,10.93,10.48,14.89,11.61,19.81c0,0-6.84-14.29-13-9.91s5.36,13,10.48,16.13,8.69,22.67,8.69,22.67Z" style="fill:#407BFF"></path><path d="M422.06,406.11s-5.25-11.45.75-22.74,7.73-13.94,3.91-16.26-5.58,9-5.58,9-3.22-7.8-.56-16,4.33-21.47.7-22.89-.7,16.59-3.85,22.73a52.59,52.59,0,0,1-3.08-13.39c-.44-6.56.24-17-2.63-19.72s-4.7-.83-1.88,13.64a150.9,150.9,0,0,1,2.79,26.25s-6.22-19-10.4-19.55-4.18,5.6-.6,10.93,10.48,14.89,11.61,19.81c0,0-6.84-14.29-13-9.91s5.36,13,10.48,16.13,8.69,22.67,8.69,22.67Z" style="fill:#fff;opacity:0.6000000000000001;isolation:isolate"></path><path d="M417.92,410.81s5.11-11.53-1-22.73-7.91-13.83-4.11-16.2,5.68,8.95,5.68,8.95,3.13-7.85.37-16-4.58-21.4-1-22.88.9,16.58,4.12,22.67a52.63,52.63,0,0,0,2.92-13.44c.36-6.56-.44-17,2.39-19.76s4.7-.89,2.05,13.62a152.08,152.08,0,0,0-2.48,26.29s6-19.08,10.17-19.7,4.24,5.53.73,10.92-10.3,15-11.37,20c0,0,6.66-14.39,12.86-10.11s-5.19,13.09-10.28,16.29-8.41,22.79-8.41,22.79Z" style="fill:#407BFF"></path><path d="M417.92,410.81s5.11-11.53-1-22.73-7.91-13.83-4.11-16.2,5.68,8.95,5.68,8.95,3.13-7.85.37-16-4.58-21.4-1-22.88.9,16.58,4.12,22.67a52.63,52.63,0,0,0,2.92-13.44c.36-6.56-.44-17,2.39-19.76s4.7-.89,2.05,13.62a152.08,152.08,0,0,0-2.48,26.29s6-19.08,10.17-19.7,4.24,5.53.73,10.92-10.3,15-11.37,20c0,0,6.66-14.39,12.86-10.11s-5.19,13.09-10.28,16.29-8.41,22.79-8.41,22.79Z" style="fill:#fff;opacity:0.7000000000000001;isolation:isolate"></path><polygon points="441.49 402.59 399.27 402.59 402.69 432.8 438.07 432.8 441.49 402.59" style="fill:#407BFF"></polygon></g><g id="freepik--plant-1--inject-2"><path d="M78.94,402.74c.14-.95,3.39-23.38-3.12-31.13A7.06,7.06,0,0,0,70.41,369c-13.15-.31-14.95,10.25-15,10.36l1.55.24c.06-.38,1.62-9.32,13.37-9a5.5,5.5,0,0,1,4.25,2.1c6.06,7.21,2.8,29.67,2.77,29.89Z" style="fill:#407BFF"></path><path d="M79.73,401.72l1.57-.05c0-.2-.52-20.67,9.56-24.9,9.89-4.14,14.33,4.37,14.52,4.74l1.4-.71c0-.1-5.27-10.19-16.52-5.47C79.18,380,79.71,400.83,79.73,401.72Z" style="fill:#407BFF"></path><path d="M79.69,403.33c0-.33.09-32.69,6.4-42.16,6.06-9.09,15.84-4.81,16.25-4.62l.65-1.43c-.12-.05-11.4-5-18.2,5.18-6.58,9.86-6.67,41.68-6.67,43Z" style="fill:#407BFF"></path><path d="M68.53,369.73s5.74,2.11,4,7.11S52.7,390.06,52.7,390.06s-7.6-7-.62-18.3S68.37,366.15,68.53,369.73Z" style="fill:#407BFF"></path><path d="M86.38,359.46s-4.08-.43-3.75-2.92,15.84-8.87,25,1.46c0,0-5.86,10.07-14.34,10.2S86.38,359.46,86.38,359.46Z" style="fill:#407BFF"></path><path d="M90.56,376.05s-2.81-2.27.22-3.38,17.93-.79,18.09,14c0,0-17.35,2.88-19.5-2.74S90.56,376.05,90.56,376.05Z" style="fill:#407BFF"></path><path d="M68.53,369.73s5.74,2.11,4,7.11S52.7,390.06,52.7,390.06s-7.6-7-.62-18.3S68.37,366.15,68.53,369.73Z" style="opacity:0.2;isolation:isolate"></path><path d="M86.38,359.46s-4.08-.43-3.75-2.92,15.84-8.87,25,1.46c0,0-5.86,10.07-14.34,10.2S86.38,359.46,86.38,359.46Z" style="opacity:0.2;isolation:isolate"></path><path d="M90.56,376.05s-2.81-2.27.22-3.38,17.93-.79,18.09,14c0,0-17.35,2.88-19.5-2.74S90.56,376.05,90.56,376.05Z" style="opacity:0.2;isolation:isolate"></path><polygon points="65.44 432.8 92.36 432.8 95.27 403.33 62.54 403.33 65.44 432.8" style="fill:#407BFF"></polygon><polygon points="65.44 432.8 92.36 432.8 95.27 403.33 62.54 403.33 65.44 432.8" style="fill:#fff;opacity:0.5;isolation:isolate"></polygon><rect x="61.1" y="400.07" width="35.6" height="6.5" transform="translate(157.81 806.65) rotate(180)" style="fill:#407BFF"></rect><rect x="61.1" y="400.07" width="35.6" height="6.5" transform="translate(157.81 806.65) rotate(180)" style="fill:#fff;opacity:0.2;isolation:isolate"></rect></g><g id="freepik--character-2--inject-2"><g id="freepik--group--inject-2"><path d="M353.54,423.62h9.8a.71.71,0,0,1,.69.55l1.59,7.19a1.19,1.19,0,0,1-.92,1.41l-.26,0c-3.17-.05-5.48-.24-9.46-.24-2.45,0-9.85.25-13.24.25s-3.82-3.34-2.44-3.65c6.22-1.36,10.9-3.23,12.89-5A1.93,1.93,0,0,1,353.54,423.62Z" style="fill:#263238"></path><path d="M312,423.36h9.8a.71.71,0,0,1,.69.56l1.59,7.18a1.2,1.2,0,0,1-.92,1.41.78.78,0,0,1-.26,0c-3.17,0-5.48-.24-9.46-.24-2.46,0-9.85.26-13.24.26s-3.83-3.35-2.44-3.66c6.22-1.35,10.89-3.23,12.89-5A1.92,1.92,0,0,1,312,423.36Z" style="fill:#263238"></path><path d="M358.74,242H315.93c-4.07,22.23-16.81,112.49-7.67,182.57h14.49s-1.34-106.44,11.46-140.83c1.47,18.41,16.43,140.76,16.43,140.76h14.75s-2.2-46-4.41-89.5C359.59,307.6,358.8,247.6,358.74,242Z" style="fill:#407BFF"></path><path d="M334.2,283.72a116.3,116.3,0,0,0-4.78,18.52c-1.2-16.38,3.59-33.75,3.59-33.75Z" style="opacity:0.2;isolation:isolate"></path><polygon points="315.57 242.5 358.66 242.5 358.66 247.63 315.02 247.1 315.57 242.5" style="fill:#263238"></polygon><rect x="343.27" y="240.19" width="1.54" height="9.11" style="fill:#407BFF"></rect><rect x="321.47" y="240.19" width="1.54" height="9.11" style="fill:#407BFF"></rect><rect x="327.24" y="241.6" width="7.97" height="5.74" style="fill:#fff"></rect><path d="M358.8,243.32c1.14-24.52,8.35-59.22,8.35-59.22-20-4.82-46.87-3.61-46.87-3.61-5.24,18.72-5.14,48.93-4.68,62.83Z" style="fill:#263238"></path><path d="M358.8,243.32c1.14-24.52,8.35-59.22,8.35-59.22-20-4.82-46.87-3.61-46.87-3.61-5.24,18.72-5.14,48.93-4.68,62.83Z" style="fill:#fff;opacity:0.2"></path><path d="M333.8,180l-1.43.65s.23,6.43,6.69,6.85,12.52-6,12.52-6l-2.17-1.17Z" style="fill:#263238"></path><path d="M348.48,178.92c-3.16,2.6-8,6.24-9.42,5.78-1.19-.39-3.25-2.75-4.89-4.84a4.69,4.69,0,0,0,2.26-1.43,5.3,5.3,0,0,0,.4-3.42,37.66,37.66,0,0,0-1.43-6.51l-.24-.76,12.5-5.14s-1.1,11.46-.07,14.8A4.12,4.12,0,0,0,348.48,178.92Z" style="fill:#e4897b"></path><path d="M345.7,169.61s-2.43,10.74-8.86,5.4a39.76,39.76,0,0,0-1.44-6.51l.76-.28Z" style="opacity:0.2;isolation:isolate"></path><path d="M328.13,145.24s-4.33,8.48,2.3,15.34c4.93,5.09,7.57-15.17,7.57-15.17Z" style="fill:#263238"></path><path d="M346,171.06a9.8,9.8,0,0,1-11.62,2.45,10.9,10.9,0,0,1-5.6-5.77c-.15-.35-.27-.72-.39-1.09-2-6.89-1.56-18.46,5.88-21.94a10.63,10.63,0,0,1,15.18,9.86C349.35,162.33,349.68,166.9,346,171.06Z" style="fill:#e4897b"></path><path d="M337.74,157.34c.08.63-.27,1.16-.69,1.18s-.77-.48-.8-1.11.28-1.16.69-1.18S337.71,156.7,337.74,157.34Z" style="fill:#263238"></path><path d="M330.61,157.71c.07.62-.28,1.16-.69,1.18s-.78-.48-.81-1.11.28-1.16.69-1.18S330.57,157.11,330.61,157.71Z" style="fill:#263238"></path><path d="M332.89,157.9a22.31,22.31,0,0,1-2.74,5.56,3.67,3.67,0,0,0,3.06.41Z" style="fill:#de5753"></path><path d="M327.8,154.79a.41.41,0,0,0,.39,0,3,3,0,0,1,2.64-.45.37.37,0,1,0,.28-.68h0a3.69,3.69,0,0,0-3.34.53.37.37,0,0,0-.11.51h0A.49.49,0,0,0,327.8,154.79Z" style="fill:#263238"></path><path d="M339,154.41a.3.3,0,0,0,.2-.08.37.37,0,0,0-.06-.52h0a3.7,3.7,0,0,0-3.33-.67.36.36,0,0,0-.22.47h0a.37.37,0,0,0,.47.22h0a3,3,0,0,1,2.62.58A.36.36,0,0,0,339,154.41Z" style="fill:#263238"></path><path d="M343.22,145.19l-.41,3.42a2.54,2.54,0,0,1,1.29,3.21c-1.09,2.88.56,7.34,2.77,9.11,0,0,.07-1.24,1.12-1s.79,6.79-1.25,9.89c0,0,3.09-2.81,4.82-9.64,1.6-6.31,3.06-6.51.48-14Z" style="fill:#263238"></path><path d="M353.12,160.75a7.41,7.41,0,0,1-4,3.95c-2.41,1-3.88-1.14-3.44-3.56.41-2.14,2.15-5.29,4.68-5.18S354,158.53,353.12,160.75Z" style="fill:#e4897b"></path><path d="M333.8,165.84a20.73,20.73,0,0,1,1.13,2.73c.18,0,.35,0,.52-.09,2.32-.4,3.26-1.35,3.61-2.28a3.16,3.16,0,0,0,.13-1.43,2.91,2.91,0,0,0-.21-.8,11,11,0,0,1-4.39,1.73C334.11,165.8,333.8,165.84,333.8,165.84Z" style="fill:#263238"></path><path d="M334.59,165.7l.36.79c2.18-.38,3.67-.94,4.24-1.72a2.91,2.91,0,0,0-.21-.8A11,11,0,0,1,334.59,165.7Z" style="fill:#fff"></path><path d="M335.45,168.48c2.32-.4,3.26-1.35,3.61-2.28a7.34,7.34,0,0,0-2.49,1A2.81,2.81,0,0,0,335.45,168.48Z" style="fill:#de5753"></path><path d="M330,143.46a16.62,16.62,0,0,1-4-2.37c-.94-1,3.48-3.34,6.59-4.07s9-1.88,14,0,11.23,9.27,10.81,10.43S334.6,146.67,330,143.46Z" style="fill:#407BFF"></path><path d="M327.59,145.38l2.38-4.73s10.41-.89,13.44-.2,10.3,6,10.3,6l-.22,3.13Z" style="fill:#407BFF"></path><path d="M327.59,145.38l2.38-4.73s10.41-.89,13.44-.2,10.3,6,10.3,6l-.22,3.13Z" style="opacity:0.2;isolation:isolate"></path><path d="M326.93,149.27s15-2,26.5,3.72c0,0,1.19-3,.47-4.35-.29-.53-6.67-4.56-17-4.79s-9.92.7-10.24,1.34S325.9,148.85,326.93,149.27Z" style="fill:#407BFF"></path><path d="M341.28,144s0,4.87-.21,5.44.25.68.62-.15S342.69,143.49,341.28,144Z" style="fill:#407BFF"></path><path d="M330.41,143.91s-.89,4.76-.94,5.13-.52.4-.73,0S328.79,142.83,330.41,143.91Z" style="fill:#407BFF"></path><path d="M351.5,147.13c.54.28-.16,4.91-.57,4.75s.44.69.77.32a12.21,12.21,0,0,0,.58-4.55C352.07,146.87,351.5,147.13,351.5,147.13Z" style="fill:#407BFF"></path><path d="M341.28,144s0,4.87-.21,5.44.25.68.62-.15S342.69,143.49,341.28,144Z" style="opacity:0.2;isolation:isolate"></path><path d="M330.41,143.91s-.89,4.76-.94,5.13-.52.4-.73,0S328.79,142.83,330.41,143.91Z" style="opacity:0.2;isolation:isolate"></path><path d="M351.5,147.13c.54.28-.16,4.91-.57,4.75s.44.69.77.32a12.21,12.21,0,0,0,.58-4.55C352.07,146.87,351.5,147.13,351.5,147.13Z" style="opacity:0.2;isolation:isolate"></path><path d="M337,170.71a3,3,0,0,0,3.21-.84c1.27-1.53.44-2.53.44-2.53s2.85,1.73,2.5,3.52-2.35,3.56-6.64,3.61-2.71-4.25-2.71-4.25.1,1.39.79,1.53S337,170.71,337,170.71Z" style="fill:#263238"></path><path d="M333.8,180l1.65-3.48s2.29,3,2.91,3.85a9.35,9.35,0,0,1,.93,3s.89-2.42,2.3-3,7.27-3.85,7.27-3.85l1.39,3.85s-6.65,5-11.19,4.34A6.15,6.15,0,0,1,333.8,180Z" style="fill:#407BFF"></path><path d="M333.8,180l1.65-3.48s2.29,3,2.91,3.85a9.35,9.35,0,0,1,.93,3s.89-2.42,2.3-3,7.27-3.85,7.27-3.85l1.39,3.85s-6.65,5-11.19,4.34A6.15,6.15,0,0,1,333.8,180Z" style="fill:#fff;opacity:0.6000000000000001"></path><path d="M342,210.86l-6.58-1.39-1.28-8.63s-4.38,2.76-4.38,3.75,1.44,9,1.44,9h2.94l7.11,1.77Z" style="fill:#e4897b"></path><path d="M320,209.15l6.7-.6,2.3-8.42s4,3.26,3.9,4.25-2.51,8.81-2.51,8.81l-2.93-.35-7.26.91Z" style="fill:#e4897b"></path><path d="M367.15,184.1c4.4,2.27,6.47,33.11,0,36s-30.91-4.64-30.91-4.64l.92-6.49s21.19,3.84,23,2.7c3.34-2.15,2.23-12.43,2.23-12.43a48.26,48.26,0,0,1,1.39-8.65A27.6,27.6,0,0,1,367.15,184.1Z" style="fill:#263238"></path><path d="M320.28,180.49c-4.28.72-16.11,30-14.44,34.92s18.38-.65,18.38-.65v-6.84s-8.71,1-9.27.41,1.46-3.74,1.46-3.74,2.44-9.46,3.59-14.88A23.4,23.4,0,0,0,320.28,180.49Z" style="fill:#263238"></path></g></g><g id="freepik--character-1--inject-2"><path d="M195.69,412.26l12-2.24v8.51s6.13,10.16,8.77,10.86a2.88,2.88,0,0,1,2.09,3.41H205.3L202.09,429l-.69,3.83h-2.54s-2.68-7.73,0-13.16Z" style="fill:#263238"></path><path d="M153.47,411.21l12,.92-1.06,6.4s6.13,10.16,8.77,10.86a2.88,2.88,0,0,1,2.09,3.41H162L158.81,429l-.69,3.83h-2.54s-2.68-7.73,0-13.16Z" style="fill:#263238"></path><path d="M195.69,412.26l12-2.24v8.51s6.13,10.16,8.77,10.86a2.88,2.88,0,0,1,2.09,3.41H205.3L202.09,429l-.69,3.83h-2.54s-2.68-7.73,0-13.16Z" style="fill:#fff;opacity:0.2"></path><path d="M153.47,411.21l12,.92-1.06,6.4s6.13,10.16,8.77,10.86a2.88,2.88,0,0,1,2.09,3.41H162L158.81,429l-.69,3.83h-2.54s-2.68-7.73,0-13.16Z" style="fill:#fff;opacity:0.2"></path><path d="M177.32,203.88c4,1.23,11.47,23.41,10,28.85s-7.5-3.49-10-10.17S177.32,203.88,177.32,203.88Z" style="fill:#407BFF"></path><path d="M177.32,203.88c4,1.23,11.47,23.41,10,28.85s-7.5-3.49-10-10.17S177.32,203.88,177.32,203.88Z" style="opacity:0.4;isolation:isolate"></path><path d="M139,210.26s-5.2,21.72.15,29.12,7.34-24.26,7.34-24.26Z" style="fill:#407BFF"></path><path d="M139,210.26s-5.2,21.72.15,29.12,7.34-24.26,7.34-24.26Z" style="opacity:0.4;isolation:isolate"></path><path d="M139.18,208.26s7.21,14.61,8.07,44.61l30.81-2.66s3.09-31.2-.74-46.33c0,0-26.2,1.8-35.62,3.86C140.82,207.94,140,208.12,139.18,208.26Z" style="fill:#407BFF"></path><path d="M178.76,240.76c-.32,5.63-.7,9.45-.7,9.45l-30.81,2.66q-.1-3.59-.32-6.86c-.39-6-1-11.22-1.76-15.75-.19-1.18-.39-2.29-.6-3.37-.08-.39-.15-.77-.23-1.15-.12-.63-.25-1.25-.38-1.85l-.08-.37c-.21-1-.44-2-.66-2.92-.17-.66-.33-1.28-.49-1.88-.09-.3-.16-.58-.23-.86a1,1,0,0,1,0-.17c-.17-.6-.33-1.17-.5-1.71s-.39-1.3-.58-1.9-.4-1.21-.58-1.74l-.19-.52c-.12-.34-.23-.66-.34-.94-.67-1.75-1.09-2.61-1.09-2.61.79-.15,1.64-.33,2.53-.53,9.41-2.06,35.6-3.86,35.6-3.86.27,1,.5,2.17.7,3.35.06.33.11.67.17,1,.32,2.12.56,4.41.72,6.81.06.79.1,1.58.14,2.38l.06,1.27c0,.42,0,.84,0,1.28q0,1.26.06,2.55c0,.76,0,1.52,0,2.27C179.25,230.58,179,236.25,178.76,240.76Z" style="opacity:0.4;isolation:isolate"></path><path d="M178.76,240.76c-4.58-3.17-8.13-9.23-8.13-9.23a13.21,13.21,0,0,1-5.47,1.2,27.75,27.75,0,0,1-5.63-.59s-6.92,10.37-12.6,13.87c-.39-6-1-11.22-1.76-15.75-.19-1.18-.39-2.29-.6-3.37-.08-.39-.15-.77-.23-1.15-.12-.63-.25-1.25-.38-1.85l-.08-.37c-.22-1-.45-2-.66-2.92-.17-.66-.33-1.28-.49-1.88-.09-.3-.16-.58-.23-.86a1,1,0,0,1,0-.17c-.17-.6-.33-1.17-.5-1.71s-.39-1.31-.58-1.9-.4-1.21-.58-1.74l-.19-.52c-.12-.34-.23-.66-.34-.94-.67-1.75-1.09-2.61-1.09-2.61.79-.15,1.64-.33,2.53-.53,9.41-2.06,35.6-3.86,35.6-3.86.27,1,.5,2.17.7,3.35.06.33.11.67.17,1,.32,2.12.56,4.41.72,6.81.06.79.1,1.58.14,2.38l.06,1.27c0,.42,0,.84,0,1.28q0,1.26.06,2.55c0,.76,0,1.52,0,2.27C179.25,230.58,179,236.25,178.76,240.76Z" style="opacity:0.2;isolation:isolate"></path><path d="M152.93,206.59a2.32,2.32,0,0,0-1.09,1.33h14.34c-.12-1.12-.82-2.13-2.6-2.74a7.57,7.57,0,0,0-1-.24c-.8-.43-1.88-1.61-2.4-4.85a26.54,26.54,0,0,1-.31-3.86l-9.3-.11S154.71,201.64,152.93,206.59Z" style="fill:#eec1bb"></path><path d="M159.88,196.23a26.54,26.54,0,0,0,.31,3.86c-6.09,1-9.61-4-9.61-4Z" style="opacity:0.2;isolation:isolate"></path><path d="M155.2,167.6c5.22,1.67,11.18,1.88,12.37,11.68,0,0,6.4,19.36,6.39,23.65,0,0,3.15-.41,4.49.42,2.43,1.5,5.55,10,5.55,10s-5.63,14.31-16.35,17.55S136,218,136,218s1.17-12.54,3.21-14.14a7.08,7.08,0,0,1,5-1.08,4.72,4.72,0,0,1-1.06-2.57c0-1.24,2-7.52.56-14.15S155.2,167.6,155.2,167.6Z" style="fill:#407BFF"></path><path d="M155.88,170.76c7.91-.78,10.88,3.2,12.27,11.3,1.74,10.13.2,17.59-9.92,16.4C144.5,196.83,142.73,172.07,155.88,170.76Z" style="fill:#eec1bb"></path><path d="M163,182.13a16.55,16.55,0,0,0,2.63,3.05,2.19,2.19,0,0,1-2,1.11Z" style="fill:#d4827d"></path><path d="M158.08,182c.08.65-.2,1.22-.64,1.27s-.85-.43-.92-1.08.2-1.21.63-1.27S158,181.31,158.08,182Z" style="fill:#263238"></path><path d="M157,180.94l1.34-.73S157.76,181.48,157,180.94Z" style="fill:#263238"></path><path d="M166.13,180.84c.08.64-.21,1.21-.64,1.27s-.85-.43-.93-1.08.21-1.22.64-1.27S166.05,180.19,166.13,180.84Z" style="fill:#263238"></path><path d="M165,179.81l1.34-.73S165.81,180.36,165,179.81Z" style="fill:#263238"></path><path d="M154.14,178.38a.37.37,0,0,1-.18,0,.34.34,0,0,1-.1-.48,4.4,4.4,0,0,1,3.61-1.69.34.34,0,0,1,.33.35.34.34,0,0,1-.34.34h0a3.79,3.79,0,0,0-3,1.38A.34.34,0,0,1,154.14,178.38Z" style="fill:#263238"></path><path d="M166.4,176.28a.47.47,0,0,1-.16,0,3.35,3.35,0,0,0-2.91-.33.36.36,0,0,1-.46-.16.34.34,0,0,1,.16-.46,4,4,0,0,1,3.53.34.35.35,0,0,1,.14.47A.35.35,0,0,1,166.4,176.28Z" style="fill:#263238"></path><path d="M150,186.51a3.5,3.5,0,0,0-4-2.81c-2.43.51-3.1,5.67,3.12,6.27C150,190.06,150.38,189.15,150,186.51Z" style="fill:#eec1bb"></path><path d="M164,189.26a26.07,26.07,0,0,0-1.9,3.17,6.4,6.4,0,0,1-.62-.2c-2.81-.91-3.8-2.27-4.06-3.49a3.79,3.79,0,0,1,.1-1.8,4,4,0,0,1,.4-.95c1.19,1.38,3.74,2.44,5.13,2.95C163.66,189.15,164,189.26,164,189.26Z" style="fill:#263238"></path><path d="M163.08,188.94l-.59.92c-2.64-.88-4.38-1.85-4.94-2.92a4,4,0,0,1,.4-.95C159.14,187.37,161.69,188.43,163.08,188.94Z" style="fill:#fff"></path><path d="M161.51,192.23c-2.81-.91-3.8-2.27-4.06-3.49a9.56,9.56,0,0,1,2.91,1.64A3.58,3.58,0,0,1,161.51,192.23Z" style="fill:#de5753"></path><path d="M149.65,181.92s3.57-11.47,10.5-11,7.42,8.41,7.42,8.41,2.08-13.16-14.79-13-7.55,25-7.55,25,7.91,9.38,17.86,7C163.09,198.25,152.87,199.28,149.65,181.92Z" style="fill:#407BFF"></path><path d="M154.56,222.28l5.77-3s1.39-7.46,1.88-8.44,2,1.78,2.72,2.49-.37,7.44-.81,8.18-2.42,0-2.42,0l-5.41,3.85Z" style="fill:#eec1bb"></path><path d="M174.76,222.28l-5.77-3s-1.38-7.46-1.87-8.44-2,1.78-2.72,2.49.36,7.44.81,8.18,2.41,0,2.41,0l5.41,3.85Z" style="fill:#eec1bb"></path><path d="M136.76,232.39c-.9,24.91,26-4,26-4l-5.51-9.07S137,226,136.76,232.39Z" style="fill:#407BFF"></path><path d="M136.76,232.39c-.9,24.91,26-4,26-4l-5.51-9.07S137,226,136.76,232.39Z" style="opacity:0.4;isolation:isolate"></path><path d="M172.57,220.05l-3.1,9.27s10.6,9.11,14.58,9.52S192.33,226.87,172.57,220.05Z" style="fill:#407BFF"></path><path d="M172.57,220.05l-3.1,9.27s10.6,9.11,14.58,9.52S192.33,226.87,172.57,220.05Z" style="opacity:0.4;isolation:isolate"></path><path d="M147.28,249.44s-13.87,43-3.37,166.23l74.66-4.46S204,310.53,178.31,247.34Z" style="fill:#263238"></path></g><g id="freepik--Table--inject-2"><polygon points="241.04 280.17 216.69 280.17 214.72 282.55 256.5 311.17 259.7 311.17 261.94 311.17 286.29 311.17 241.04 280.17" style="fill:#263238"></polygon><polygon points="292.44 280.17 268.08 280.17 222.84 311.17 247.19 311.17 252.63 311.17 294.4 282.55 292.44 280.17" style="fill:#263238"></polygon><polygon points="270.05 282.55 268.08 280.17 242.39 297.77 216.69 280.17 214.72 282.55 239.67 299.64 222.84 311.17 228.28 311.17 242.39 301.5 256.5 311.17 261.94 311.17 245.11 299.64 270.05 282.55" style="fill:#fff;opacity:0.2"></polygon><path d="M222.44,280.88h22.23s7.25.63,10.75,5l-10.75,8.77Z" style="fill:#407BFF"></path><path d="M222.44,280.88h22.23s7.25.63,10.75,5l-10.75,8.77Z" style="fill:#fff;opacity:0.5"></path><path d="M222.44,280.88l22.42,15.2,22-15.16s-6.13-.75-10.84,1.71a27.11,27.11,0,0,0-10.81,9.85A25.16,25.16,0,0,0,222.44,280.88Z" style="fill:#407BFF"></path><path d="M222.44,280.88l22.42,15.2,22-15.16s-6.13-.75-10.84,1.71a27.11,27.11,0,0,0-10.81,9.85A25.16,25.16,0,0,0,222.44,280.88Z" style="fill:#fff;opacity:0.7000000000000001"></path><polygon points="344.18 311.47 344.18 432.55 338.5 432.55 338.5 322.33 274.06 322.33 274.06 432.55 268.38 432.55 268.38 322.33 246.41 322.33 246.41 432.55 240.72 432.55 240.72 322.33 176.29 322.33 176.29 432.55 170.6 432.55 170.6 311.47 344.18 311.47" style="fill:#407BFF"></polygon><polygon points="344.18 311.47 344.18 432.55 338.5 432.55 338.5 322.33 274.06 322.33 274.06 432.55 268.38 432.55 268.38 322.33 246.41 322.33 246.41 432.55 240.72 432.55 240.72 322.33 176.29 322.33 176.29 432.55 170.6 432.55 170.6 311.47 344.18 311.47" style="fill:#fff;opacity:0.4"></polygon><polygon points="268.3 311.47 268.3 322.33 246.41 322.33 240.72 322.33 176.29 322.33 176.29 432.55 170.6 432.55 170.6 311.47 268.3 311.47" style="fill:#fff;opacity:0.30000000000000004"></polygon></g></svg>